<svg id="Capa_1" enable-background="new 0 0 512 512" height="512" viewBox="0 0 512 512" width="512" xmlns="http://www.w3.org/2000/svg"><g><path d="m117.699 127.999h50.304v32.121h-50.304z" fill="#ffe177"/><path d="m117.699 127.999v32.121h20.604v-32.121z" fill="#ffd15b"/><path d="m64.002 64.001c-35.346 0-64 28.654-64 64v32.247c0 35.346 28.654 64 64 64 35.346 0 64-28.654 64-64v-32.248c0-35.346-28.654-63.999-64-63.999zm32 95.999c0 17.673-14.327 32-32 32-17.673 0-32-14.327-32-32v-32c0-17.673 14.327-32 32-32 17.673 0 32 14.327 32 32z" fill="#ffe177"/><path d="m15.453 160.244v-32.245c0-32.729 24.57-59.72 56.279-63.532-2.534-.309-5.11-.464-7.726-.464-35.346.001-64.006 28.651-64.006 63.996v32.245c0 35.346 28.66 64.005 64.005 64.005 2.617 0 5.192-.154 7.726-.464-31.708-3.811-56.278-30.812-56.278-63.541z" fill="#ffd15b"/><path d="m464.041 96.125h-.066c-8.805 0-15.944 7.138-15.944 15.944v15.932h-32.093v-47.932c0-8.805-7.138-15.944-15.944-15.944h-.05c-8.805 0-15.944 7.138-15.944 15.944v47.932h-50.302v32.124l162.369-.112c8.801-.007 15.932-7.143 15.932-15.944 0-8.805-7.138-15.944-15.944-15.944h-16.055l-.016-16.072c-.008-8.799-7.144-15.928-15.943-15.928z" fill="#ffe177"/><g fill="#ffd15b"><path d="m333.697 127.999h25.755v32.111l-25.755.011z"/><path d="m399.99 64.128c2.792 0 5.419.721 7.706 1.988-4.914 2.709-8.241 7.943-8.241 13.949v47.935h-15.453v-47.935c0-8.798 7.139-15.937 15.947-15.937z"/><path d="m471.732 98.104c-4.924 2.709-8.252 7.953-8.252 13.969v15.927h-15.453v-15.927c0-8.808 7.139-15.947 15.947-15.947h.062c2.792 0 5.419.71 7.696 1.978z"/></g><path d="m343.999 136.272v108.427c0 12.383-4.914 24.251-13.671 32.997l-18.327 18.337v42.299h-112.001v-42.299l-18.327-18.337c-8.757-8.746-13.671-20.614-13.671-32.997v-124.663c0-4.419 1.793-8.417 4.687-11.322 2.895-2.895 6.892-4.687 11.311-4.687 8.839 0 15.999 7.17 15.999 16.009v-16.009c0-4.419 1.793-8.417 4.687-11.311 2.895-2.895 6.892-4.687 11.311-4.687 8.818 0 15.958 7.129 15.999 15.937v-15.938c0-5.264 2.555-9.952 6.49-12.857 2.658-1.978 5.944-3.142 9.509-3.142 9.755.913 15.092 6.246 16.009 15.999v-15.998c0-8.839 7.16-15.999 15.999-15.999 4.409 0 8.417 1.793 11.311 4.687 2.895 2.895 4.687 6.892 4.687 11.311v31.997h15.752c17.814.001 32.246 14.444 32.246 32.246z" fill="#ffcebf"/><path d="m215.999 88.028c2.802 0 5.439.721 7.726 1.998-1.319.721-2.524 1.628-3.585 2.689-2.895 2.895-4.687 6.892-4.687 11.311v16.009c0-8.653-6.871-15.71-15.453-15.999v-.01c0-4.419 1.793-8.417 4.687-11.311 2.895-2.894 6.892-4.687 11.312-4.687z" fill="#ffb09e"/><path d="m223.725 182.033c-2.287 1.277-4.924 1.999-7.726 1.999-8.839 0-15.999-7.16-15.999-15.999v-64.005c0-8.829 7.16-15.999 15.999-15.999 2.802 0 5.439.721 7.726 1.998-4.935 2.72-8.272 7.974-8.272 14v64.005c0 6.037 3.338 11.291 8.272 14.001z" fill="#ffb09e"/><path d="m264.006 104.027v-31.997c0-8.839 7.16-15.999 15.999-15.999 4.409 0 8.417 1.793 11.311 4.687 2.895 2.895 4.687 6.892 4.687 11.311v31.998z" fill="#ffcebf"/><path d="m287.731 58.029c-4.935 2.709-8.272 7.963-8.272 14v31.997h-15.453v-31.996c0-8.839 7.16-15.999 15.999-15.999 2.801 0 5.439.721 7.726 1.998z" fill="#ffb09e"/><path d="m264.006 144.029v24.003c0 8.839 7.16 15.999 15.999 15.999 8.829 0 15.999-7.16 15.999-15.999v-15.999z" fill="#ffcebf"/><path d="m287.731 182.033c-2.287 1.277-4.924 1.999-7.726 1.999-8.839 0-15.999-7.16-15.999-15.999v-24.003l15.453 3.863v20.14c-.001 6.036 3.337 11.29 8.272 14z" fill="#ffb09e"/><path d="m255.63 74.08c-4.883 2.73-8.18 7.963-8.18 13.949v16.174c-8.736 1.226-15.453 8.726-15.453 17.802v-33.977c0-8.829 7.17-15.999 15.999-15.999 2.947.279 5.491.959 7.634 2.051z" fill="#ffb09e"/><path d="m231.998 168.032v-46.029c0 4.121 1.401 7.974 3.812 11.054 2.4 3.08 5.81 5.378 9.807 6.377l18.389 4.595v24.003c0 8.839-7.17 15.999-16.009 15.999-8.829 0-15.999-7.159-15.999-15.999z" fill="#ffcebf"/><path d="m255.723 182.033c-2.287 1.277-4.924 1.999-7.726 1.999-8.829 0-15.999-7.16-15.999-15.999v-46.029c0 4.121 1.401 7.974 3.812 11.054 2.4 3.08 5.81 5.378 9.807 6.377l1.834.453v28.145c-.001 6.036 3.337 11.29 8.272 14z" fill="#ffb09e"/><g><path d="m314.031 156.505v27.537c0 4.265-3.461 7.726-7.726 7.726h-15.999c-22.211 0-40.28 18.059-40.28 40.26 0 4.275-3.461 7.726-7.726 7.726s-7.726-3.451-7.726-7.726c0-27.496 20.027-50.407 46.266-54.898 3.08-.536 6.243-.814 9.467-.814h8.272v-23.663z" fill="#ffb09e"/></g><path d="m328.001 370.269h-144v-35.302c0-3.866 3.134-7 7-7h129.999c3.866 0 7 3.134 7 7v35.302z" fill="#eaf6ff"/><path d="m204.605 327.969v42.299h-20.604v-35.299c0-3.866 3.134-7 7-7z" fill="#d8ecfe"/><path d="m337.001 455.967h-162c-3.866 0-7-3.134-7-7v-81.937c0-3.866 3.134-7 7-7h161.999c3.866 0 7 3.134 7 7v81.937c.001 3.866-3.133 7-6.999 7z" fill="#8ac9fe"/><path d="m188.606 360.028v95.941h-13.604c-3.866 0-7-3.134-7-7v-81.941c0-3.866 3.134-7 7-7z" fill="#60b7ff"/><g><g><path d="m304.001 399.694h-16c-4.267 0-7.726-3.459-7.726-7.726s3.459-7.726 7.726-7.726h16c4.267 0 7.726 3.459 7.726 7.726s-3.459 7.726-7.726 7.726z" fill="#68748f"/></g></g><path d="m197.126 277.696c-8.757-8.746-13.671-20.614-13.671-32.997v-76.694c.183.006.362.028.546.028 2.802 0 5.439-.721 7.726-1.999-4.935-2.709-8.272-7.963-8.272-14v-31.998c0-6.037 3.338-11.291 8.272-14.011-2.287-1.277-4.924-1.999-7.726-1.999-8.839 0-15.998 7.169-15.999 16.008v.001 124.663c0 12.383 4.914 24.251 13.671 32.997l18.327 18.338v42.299h15.453v-42.299z" fill="#ffb09e"/></g></svg>