<svg height="512" viewBox="0 0 512 512" width="512" xmlns="http://www.w3.org/2000/svg"><g><path d="m256 50.05-144 52.36v184.11a128.39 128.39 0 0 0 52.71 103.52l91.29 66.39 91.29-66.39a128.39 128.39 0 0 0 52.71-103.52v-184.11zm16 209.67v36.28a16 16 0 0 1 -32 0v-36.28a32 32 0 1 1 32 0z" fill="#57a4ff"/><g fill="#004fac"><path d="m434.73 72.48-176-64a8 8 0 0 0 -5.46 0l-176 64a8 8 0 0 0 -5.27 7.52v206.52a168.494 168.494 0 0 0 69.19 135.87l110.1 80.08a8.015 8.015 0 0 0 9.42 0l110.1-80.08a168.494 168.494 0 0 0 69.19-135.87v-206.52a8 8 0 0 0 -5.27-7.52zm-10.73 214.04a152.44 152.44 0 0 1 -62.6 122.93l-105.4 76.66-105.4-76.66a152.44 152.44 0 0 1 -62.6-122.93v-200.92l168-61.09 168 61.09z"/><path d="m402.73 94.9-144-52.37a8 8 0 0 0 -5.46 0l-144 52.37a7.976 7.976 0 0 0 -5.27 7.51v184.11a136.4 136.4 0 0 0 56.01 109.99l91.28 66.39a8.015 8.015 0 0 0 9.42 0l91.28-66.39a136.4 136.4 0 0 0 56.01-109.99v-184.11a7.976 7.976 0 0 0 -5.27-7.51zm-10.73 191.62a120.334 120.334 0 0 1 -49.42 97.05l-86.58 62.97-86.58-62.97a120.334 120.334 0 0 1 -49.42-97.05v-178.5l136-49.46 136 49.46z"/><path d="m216 232a40.161 40.161 0 0 0 16 32v32a24 24 0 0 0 48 0v-32a40 40 0 1 0 -64-32zm64 0a24.1 24.1 0 0 1 -12.006 20.8 8 8 0 0 0 -3.994 6.92v36.28a8 8 0 0 1 -16 0v-36.28a8 8 0 0 0 -3.994-6.925 24 24 0 1 1 35.994-20.795z"/></g></g></svg>